<?xml version="1.0" encoding="UTF-8"?>
<svg xmlns="http://www.w3.org/2000/svg" xmlns:xlink="http://www.w3.org/1999/xlink" width="19pt" height="23pt" viewBox="0 0 19 23" version="1.1">
<g id="surface1">
<path style=" stroke:none;fill-rule:nonzero;fill:rgb(0%,0%,0%);fill-opacity:1;" d="M 8.191406 22.890625 C 1.285156 13.28125 0 12.289062 0 8.757812 C 0 3.921875 4.089844 0 9.132812 0 C 14.179688 0 18.269531 3.921875 18.269531 8.757812 C 18.269531 12.289062 16.984375 13.28125 10.078125 22.890625 C 9.621094 23.515625 8.648438 23.515625 8.191406 22.890625 Z M 9.132812 12.410156 C 11.238281 12.410156 12.9375 10.773438 12.9375 8.757812 C 12.9375 6.746094 11.238281 5.109375 9.132812 5.109375 C 7.03125 5.109375 5.332031 6.746094 5.332031 8.757812 C 5.332031 10.773438 7.03125 12.410156 9.132812 12.410156 Z M 9.132812 12.410156 "/>
</g>
</svg>
